# xmcd CD database file
#
# Track frame offsets:
#	150
#	22711
#	44911
#	73761
#	97144
#	121765
#	141692
#	169494
#	196610
#	224542
#	257631
#	289655
#	312679
#
# Disc length: 4443 seconds
#
# Revision: 0
# Processed by: cddbd v1.5.1PL0 Copyright (c) Steve Scherf et al.
# Submitted via: CDex 1.51
#
DISCID=d211590d
DTITLE=Jazz Improv - Vol. 3 Number 4
DYEAR=1900
DGENRE=Jazz
TTITLE0=Thad Jones - Rhoda Map
TTITLE1=David Leonhardt - Solar
TTITLE2=Harry Skoler - A Work of Art
TTITLE3=George Coleman - Up Jumped Spring
TTITLE4=Monica Hatch - You go to My Head
TTITLE5=Billy Taylor - Local Color/Can you Dig It
TTITLE6=Eric Nemeyer - It Could Happen to You
TTITLE7=Michel Camilo - Piece of Cake
TTITLE8=Bob Sheppard - Bait and Switch
TTITLE9=Hank Jones and Tommy Flanagan - Robbin's Nest
TTITLE10=Tony Monaco - Acid Wash
TTITLE11=Bill O'Connell Latin Jazz Project - Son of a Montuno
TTITLE12=Dom Minasi - Solitude
EXTD=
EXTT0=
EXTT1=
EXTT2=
EXTT3=
EXTT4=
EXTT5=
EXTT6=
EXTT7=
EXTT8=
EXTT9=
EXTT10=
EXTT11=
EXTT12=
PLAYORDER=
